<?xml version="1.0" encoding="UTF-8" standalone="no"?>
<svg width="149px" height="123px" viewBox="0 0 149 123" version="1.1" xmlns="http://www.w3.org/2000/svg" xmlns:xlink="http://www.w3.org/1999/xlink" xmlns:sketch="http://www.bohemiancoding.com/sketch/ns">
    <!-- Generator: Sketch 3.4.4 (17249) - http://www.bohemiancoding.com/sketch -->
    <title>icon</title>
    <desc>Created with Sketch.</desc>
    <defs></defs>
    <g id="Page-1" stroke="none" stroke-width="1" fill="none" fill-rule="evenodd" sketch:type="MSPage">
        <g id="Desktop-HD" sketch:type="MSArtboardGroup" transform="translate(-1176.000000, -1090.000000)">
            <g id="icon" sketch:type="MSLayerGroup" transform="translate(1176.000000, 1090.000000)">
                <path d="M51,48.885 C51,75.885 72.465,97.35 99.465,97.35 C101.085,97.35 103.38,97.215 105.54,96.945 L119.985,121.38 C120.39,122.19 121.605,122.73 122.145,122.73 L136.455,122.73 C138.615,122.73 139.83,120.57 138.615,118.68 L121.74,92.085 C137.4,83.445 148.065,67.245 148.065,48.885 C148.065,21.885 126.465,0.15 99.465,0.15 C72.465,0.15 51,21.885 51,48.885 L51,48.885 Z M69,49.335 C69,32.325 82.905,18.15 99.915,18.15 C116.925,18.15 130.965,32.325 130.965,49.335 C130.965,66.345 116.925,80.25 99.915,80.25 C82.905,80.25 69,66.345 69,49.335 L69,49.335 Z" id="Path" opacity="0.540345149" fill="#434343" sketch:type="MSShapeGroup"></path>
                <path d="M0.015,48.885 C0.015,75.885 21.48,97.35 48.48,97.35 C50.1,97.35 52.395,97.215 54.555,96.945 L69,121.38 C69.405,122.19 70.62,122.73 71.16,122.73 L85.47,122.73 C87.63,122.73 88.845,120.57 87.63,118.68 L70.755,92.085 C86.415,83.445 97.08,67.245 97.08,48.885 C97.08,21.885 75.48,0.15 48.48,0.15 C21.48,0.15 0.015,21.885 0.015,48.885 L0.015,48.885 Z M17.565,48.885 C17.565,31.875 31.47,17.7 48.48,17.7 C65.49,17.7 79.53,31.875 79.53,48.885 C79.53,65.895 65.49,79.8 48.48,79.8 C31.47,79.8 17.565,65.895 17.565,48.885 L17.565,48.885 Z" id="QQ" fill="#323232" sketch:type="MSShapeGroup"></path>
                <path d="M72.0365422,35.955696 L56.5370808,26.1190962 C61.3076197,16.974139 68.8817848,9.56598468 78.1545781,5.0370891 L90.7131619,19.5805844 C82.4945112,22.2036226 75.7279937,28.2300197 72.0365422,35.955696 Z" id="Path-Copy" fill="#9A9A9A" sketch:type="MSShapeGroup"></path>
            </g>
        </g>
    </g>
</svg>